<?xml version="1.0" encoding="utf-8"?>
<!-- Uploaded to: SVG Repo, www.svgrepo.com, Generator: SVG Repo Mixer Tools -->
<svg width="800px" height="800px" viewBox="0 0 1024 1024" class="icon"  version="1.1" xmlns="http://www.w3.org/2000/svg"><path d="M974.256189 160.040161v484.13899c0 31.585402-25.607193 57.192595-57.192594 57.192595H115.823796c-31.585402 0-57.192595-25.607193-57.192595-57.192595V160.040161c0-31.585402 25.607193-57.192595 57.192595-57.192595h801.239799c31.585402 0 57.192595 25.607193 57.192594 57.192595z m-64.609409 294.498704v-269.051356h-94.820143V359.750692h-139.41694v94.788173h234.237083z m-0.543474 163.361744v-94.788174h-94.820143v94.788174h94.820143z m-138.873466-337.624926v-94.788174h-94.820143v94.788174h94.820143z m-28.868034 337.624926v-94.788174H284.42846v94.788174H741.361806z m-110.548906-163.361744v-94.788173h-94.788174v94.788173h94.788174z m0-174.263182v-94.788174h-94.788174v94.788174h94.788174z m-139.41694 174.263182v-94.788173h-94.788174v94.788173h94.788174z m0-174.263182v-94.788174h-94.788174v94.788174h94.788174z m-139.384971 174.263182v-94.788173H257.190846v94.788173h94.820143z m0-174.263182v-94.788174H257.190846v94.788174h94.820143zM212.59405 617.900609v-94.788174H117.773907v94.788174H212.59405z m0-163.361744v-94.788173H117.773907v94.788173H212.59405z m0-174.263182v-94.788174H117.773907v94.788174H212.59405z" fill="#FFB578" /><path d="M909.64678 280.275683v174.263182h-234.237083v-94.788173h139.41694V185.487509h94.820143v65.344697z" fill="#FF4893" /><path d="M814.283163 523.112435h94.820143v94.788174h-94.820143zM675.409697 185.487509h94.820143v94.788174h-94.820143z" fill="#8B87C1" /><path d="M284.42846 523.112435H741.361806v94.788174H284.42846z" fill="#FF4893" /><path d="M536.024726 359.750692h94.788174v94.788173h-94.788174zM536.024726 185.487509h94.788174v94.788174h-94.788174zM396.607786 359.750692h94.788174v94.788173h-94.788174zM396.607786 185.487509h94.788174v94.788174h-94.788174zM257.190846 359.750692h94.820143v94.788173H257.190846zM257.190846 185.487509h94.820143v94.788174H257.190846zM117.773907 523.112435H212.59405v94.788174H117.773907zM117.773907 359.750692H212.59405v94.788173H117.773907zM117.773907 185.487509H212.59405v94.788174H117.773907z" fill="#8B87C1" /><path d="M917.063595 723.750067H115.823796c-43.877494 0-79.570916-35.696619-79.570916-79.574112V160.040161c0-43.877494 35.696619-79.570916 79.570916-79.570916h801.239799c43.877494 0 79.570916 35.696619 79.570915 79.570916V644.175955c0 43.877494-35.693422 79.574113-79.570915 79.574112zM115.823796 125.225887c-19.197403 0-34.814274 15.616871-34.814274 34.814274V644.175955c0 19.197403 15.616871 34.817471 34.814274 34.81747h801.239799c19.197403 0 34.814274-15.620068 34.814273-34.81747V160.040161c0-19.197403-15.616871-34.814274-34.814273-34.814274H115.823796z" fill="#4F46A3" /><path d="M212.59405 302.654004H117.773907a22.378321 22.378321 0 0 1-22.378321-22.378321v-94.788174a22.378321 22.378321 0 0 1 22.378321-22.378321H212.59405a22.378321 22.378321 0 0 1 22.378321 22.378321v94.788174a22.378321 22.378321 0 0 1-22.378321 22.378321z m-72.441822-44.756642H190.215729v-50.031532H140.152228v50.031532zM770.22984 302.654004h-94.820143a22.378321 22.378321 0 0 1-22.378321-22.378321v-94.788174a22.378321 22.378321 0 0 1 22.378321-22.378321h94.820143a22.378321 22.378321 0 0 1 22.378321 22.378321v94.788174a22.378321 22.378321 0 0 1-22.378321 22.378321z m-72.441822-44.756642h50.063501v-50.031532h-50.063501v50.031532z" fill="#4F46A3" /><path d="M630.8129 302.654004h-94.788174a22.378321 22.378321 0 0 1-22.378321-22.378321v-94.788174a22.378321 22.378321 0 0 1 22.378321-22.378321h94.788174a22.378321 22.378321 0 0 1 22.378321 22.378321v94.788174a22.378321 22.378321 0 0 1-22.378321 22.378321z m-72.409853-44.756642h50.031532v-50.031532h-50.031532v50.031532z" fill="#4F46A3" /><path d="M491.39596 302.654004h-94.788174a22.378321 22.378321 0 0 1-22.378321-22.378321v-94.788174a22.378321 22.378321 0 0 1 22.378321-22.378321h94.788174a22.378321 22.378321 0 0 1 22.378321 22.378321v94.788174a22.378321 22.378321 0 0 1-22.378321 22.378321z m-72.409853-44.756642h50.031532v-50.031532h-50.031532v50.031532z" fill="#4F46A3" /><path d="M352.010989 302.654004H257.190846a22.378321 22.378321 0 0 1-22.378321-22.378321v-94.788174a22.378321 22.378321 0 0 1 22.378321-22.378321h94.820143a22.378321 22.378321 0 0 1 22.378321 22.378321v94.788174a22.378321 22.378321 0 0 1-22.378321 22.378321z m-72.441822-44.756642h50.063501v-50.031532H279.569167v50.031532zM212.59405 476.917186H117.773907a22.378321 22.378321 0 0 1-22.378321-22.378321v-94.788173a22.378321 22.378321 0 0 1 22.378321-22.378321H212.59405a22.378321 22.378321 0 0 1 22.378321 22.378321v94.788173a22.378321 22.378321 0 0 1-22.378321 22.378321z m-72.441822-44.756642H190.215729v-50.031531H140.152228v50.031531zM630.8129 476.917186h-94.788174a22.378321 22.378321 0 0 1-22.378321-22.378321v-94.788173a22.378321 22.378321 0 0 1 22.378321-22.378321h94.788174a22.378321 22.378321 0 0 1 22.378321 22.378321v94.788173a22.378321 22.378321 0 0 1-22.378321 22.378321z m-72.409853-44.756642h50.031532v-50.031531h-50.031532v50.031531z" fill="#4F46A3" /><path d="M491.39596 476.917186h-94.788174a22.378321 22.378321 0 0 1-22.378321-22.378321v-94.788173a22.378321 22.378321 0 0 1 22.378321-22.378321h94.788174a22.378321 22.378321 0 0 1 22.378321 22.378321v94.788173a22.378321 22.378321 0 0 1-22.378321 22.378321z m-72.409853-44.756642h50.031532v-50.031531h-50.031532v50.031531z" fill="#4F46A3" /><path d="M352.010989 476.917186H257.190846a22.378321 22.378321 0 0 1-22.378321-22.378321v-94.788173a22.378321 22.378321 0 0 1 22.378321-22.378321h94.820143a22.378321 22.378321 0 0 1 22.378321 22.378321v94.788173a22.378321 22.378321 0 0 1-22.378321 22.378321z m-72.441822-44.756642h50.063501v-50.031531H279.569167v50.031531zM909.64678 476.917186h-234.237083a22.378321 22.378321 0 0 1-22.378321-22.378321v-94.788173a22.378321 22.378321 0 0 1 22.378321-22.378321h117.035422v-151.884862a22.378321 22.378321 0 0 1 22.378321-22.378321h94.820143a22.378321 22.378321 0 0 1 22.378321 22.378321v269.051356a22.371927 22.371927 0 0 1-22.375124 22.378321z m-211.858762-44.756642h189.480441v-224.294714h-50.063501v151.884862a22.378321 22.378321 0 0 1-22.378321 22.378321h-117.038619v50.031531zM212.59405 640.27893H117.773907a22.378321 22.378321 0 0 1-22.378321-22.378321v-94.788174a22.378321 22.378321 0 0 1 22.378321-22.378321H212.59405a22.378321 22.378321 0 0 1 22.378321 22.378321v94.788174a22.378321 22.378321 0 0 1-22.378321 22.378321z m-72.441822-44.756642H190.215729v-50.031532H140.152228v50.031532zM741.361806 640.27893H284.42846a22.378321 22.378321 0 0 1-22.378321-22.378321v-94.788174a22.378321 22.378321 0 0 1 22.378321-22.378321H741.361806a22.378321 22.378321 0 0 1 22.378321 22.378321v94.788174a22.378321 22.378321 0 0 1-22.378321 22.378321z m-434.555025-44.756642H718.983485v-50.031532H306.806781v50.031532zM909.103306 640.27893h-94.820143a22.378321 22.378321 0 0 1-22.378321-22.378321v-94.788174a22.378321 22.378321 0 0 1 22.378321-22.378321h94.820143a22.378321 22.378321 0 0 1 22.378321 22.378321v94.788174a22.378321 22.378321 0 0 1-22.378321 22.378321z m-72.441822-44.756642h50.063501v-50.031532h-50.063501v50.031532zM308.123905 947.533277c-53.580094 0-104.350111-32.15445-125.363354-84.874578a134.190003 134.190003 0 0 1-9.616285-49.846111c0-55.520614 33.337304-104.688983 84.935319-125.261054a22.381518 22.381518 0 0 1 16.575942 41.572527c-34.475402 13.746683-56.751422 46.594861-56.751422 83.688527 0 11.358596 2.164303 22.554151 6.438563 33.27976 18.372602 46.099341 70.840174 68.66628 116.958696 50.28089l308.088739-122.761075a22.375124 22.375124 0 0 1 29.072636 12.506285 22.378321 22.378321 0 0 1-12.506284 29.072636l-308.085542 122.761075a134.209185 134.209185 0 0 1-49.747008 9.581118z" fill="#4F46A3" /><path d="M804.283251 879.989111a22.381518 22.381518 0 0 1-20.792658-14.095146c-18.385389-46.112129-70.840174-68.66628-116.926727-50.290481a22.378321 22.378321 0 0 1-16.579139-41.572526c33.430015-13.331086 70.053735-12.838762 103.128894 1.390652 33.068765 14.223021 58.618413 40.466398 71.949499 73.896413a22.378321 22.378321 0 0 1-20.779869 30.671088z" fill="#4F46A3" /></svg>