<svg version="1.2" xmlns="http://www.w3.org/2000/svg" viewBox="0 0 32 32" width="32" height="32">
	<title>macos-svg</title>
	<style>
		.s0 { fill: #c6e9fa } 
		.s1 { fill: #00adee } 
		.s2 { fill: #231f20 } 
	</style>
	<g id="SVGRepo_bgCarrier">
	</g>
	<g id="SVGRepo_tracerCarrier">
	</g>
	<g id="SVGRepo_iconCarrier">
		<path id="Layer" fill-rule="evenodd" class="s0" d="m17.1 22.8q-1.4 0-2.8-0.1-1.4-0.1-2.8-0.4-1.4-0.2-2.7-0.7-1.4-0.4-2.7-1.1l0.7-1.1q1.2 0.6 2.5 1 1.3 0.4 2.6 0.6 1.3 0.3 2.6 0.3 1.3 0.1 2.6 0.1c0 0.1 0.2-2.3 0.4-3.6h-5q0.2-1.8 0.5-3.6 0.4-1.8 0.9-3.5 0.6-1.8 1.4-3.5 0.7-1.6 1.7-3.2h-15v22.8h15.7q-0.1-0.5-0.2-1-0.1-0.5-0.1-1-0.1-0.5-0.2-1 0-0.5-0.1-1z"/>
		<path id="Layer" fill-rule="evenodd" class="s1" d="m18.7 21.3q0.8-0.1 1.7-0.2 0.8-0.2 1.6-0.4 0.9-0.3 1.7-0.6 0.8-0.3 1.5-0.7l0.9 1.1q-0.9 0.4-1.8 0.8-0.9 0.4-1.8 0.7-0.9 0.2-1.9 0.4-1 0.2-1.9 0.3 0 0.5 0 1 0.1 0.5 0.2 1.1 0.1 0.5 0.2 1 0.1 0.5 0.2 1h10.8v-22.8h-11.5q-0.9 1.4-1.6 2.9-0.7 1.5-1.3 3-0.5 1.6-0.9 3.2-0.4 1.6-0.5 3.2h5.1q-0.2 0.6-0.3 1.2-0.1 0.6-0.2 1.3-0.1 0.6-0.2 1.2 0 0.6 0 1.3z"/>
		<path id="Layer" class="s1" d="m8.8 7.5h1.5v3.3h-1.5v-3.3z"/>
		<path id="Layer" class="s2" d="m21 7.5h1.4v3.3h-1.4v-3.3z"/>
		<path id="Layer" fill-rule="evenodd" class="s2" d="m18.7 21.3q0.8-0.1 1.7-0.2 0.8-0.2 1.6-0.4 0.9-0.3 1.7-0.6 0.8-0.3 1.5-0.7l0.9 1.1q-0.9 0.4-1.8 0.8-0.9 0.4-1.8 0.7-0.9 0.2-1.9 0.4-1 0.2-1.9 0.3 0 1 0.1 1.9 0.2 1 0.4 1.9 0.3 1 0.6 1.9 0.4 0.9 0.8 1.8l-1.2 0.6c-2.3-3.6-2.7-8.4-1.9-13h-5q0.2-2.4 0.8-4.8 0.5-2.4 1.5-4.7 0.9-2.2 2.2-4.3 1.2-2.1 2.8-4l1.1 0.9q-1.4 1.6-2.5 3.5-1.2 1.8-2 3.7-0.8 2-1.4 4-0.5 2.1-0.7 4.2h5.1q-0.2 0.6-0.3 1.2-0.1 0.6-0.2 1.3-0.1 0.6-0.2 1.2 0 0.6 0 1.3z"/>
		<path id="Layer" fill-rule="evenodd" class="s1" d="m17.1 21.4v1.4q-1.4 0-2.8-0.1-1.4-0.1-2.8-0.4-1.4-0.2-2.7-0.7-1.4-0.4-2.7-1.1l0.7-1.1q1.2 0.6 2.5 1 1.3 0.4 2.6 0.6 1.3 0.3 2.6 0.3 1.3 0.1 2.6 0.1z"/>
	</g>
</svg>