<?xml version="1.0" encoding="iso-8859-1"?>
<!-- Uploaded to: SVG Repo, www.svgrepo.com, Generator: SVG Repo Mixer Tools -->
<svg version="1.1" id="Layer_1" xmlns="http://www.w3.org/2000/svg" xmlns:xlink="http://www.w3.org/1999/xlink" 
	 viewBox="0 0 496 496" xml:space="preserve">
<path style="fill:#A3B2B0;" d="M136,416V230.4c0-36.8-30.4-67.2-68-67.2S0,193.6,0,230.4V416H136z"/>
<path style="fill:#90A09D;" d="M72,416h64V230.4c0-36.8-30.4-67.2-68-67.2"/>
<path style="fill:#A3B2B0;" d="M144,480c0,4-7.2,8-11.2,8H7.2c-4,0-7.2-4-7.2-8v-25.6c0-4.8,3.2-6.4,7.2-6.4h125.6
	c4,0,11.2,1.6,11.2,5.6V480z"/>
<path style="fill:#90A09D;" d="M0,453.6c0-4,3.2-5.6,7.2-5.6h125.6c4,0,11.2,1.6,11.2,5.6V480c0,4-4.8,8-9.6,8"/>
<rect x="16" y="416" style="fill:#4C5655;" width="104" height="32"/>
<polyline style="fill:#414C4B;" points="72,416 120,416 120,448 "/>
<path style="fill:#798483;" d="M0,231.2V416h136V231.2c0-4.8-0.8-7.2-1.6-15.2H1.6C0,223.2,0,226.4,0,231.2z"/>
<g>
	<path style="fill:#616B6A;" d="M134.4,216H72v200h64V231.2C136,226.4,136,223.2,134.4,216z"/>
	<circle style="fill:#616B6A;" cx="70.4" cy="260" r="16"/>
</g>
<path style="fill:#798483;" d="M70.4,244.8c8.8,0,16,7.2,16,16c0,8.8-7.2,15.2-16,15.2"/>
<path style="fill:#616B6A;" d="M85.6,316c0,8.8-7.2,16-16,16s-16-7.2-16-16s7.2-15.2,16-15.2S85.6,307.2,85.6,316z"/>
<path style="fill:#798483;" d="M70.4,300c8.8,0,16,7.2,16,15.2c0,8.8-7.2,16-16,16"/>
<circle style="fill:#616B6A;" cx="70.4" cy="371.2" r="16"/>
<path style="fill:#798483;" d="M70.4,356c8.8,0,16,7.2,16,15.2c0,8.8-7.2,16-16,16"/>
<path style="fill:#F4CC25;" d="M312,416V230.4C312,193.6,285.6,8,248,8s-64,184.8-64,222.4V416H312z"/>
<path style="fill:#E8B21A;" d="M248,416h64V230.4C312,193.6,285.6,8,248,8"/>
<path style="fill:#F4CC25;" d="M320,480c0,4-4.8,8-8.8,8H184.8c-4,0-8.8-4-8.8-8v-25.6c0-4,4.8-5.6,8.8-5.6h125.6
	c4,0,8.8,1.6,8.8,5.6V480H320z"/>
<path style="fill:#E8B21A;" d="M176,453.6c0-4,4.8-5.6,8.8-5.6h125.6c4,0,8.8,1.6,8.8,5.6V480c0,4-4,8-8,8"/>
<rect x="200" y="416" style="fill:#4C5655;" width="96" height="32"/>
<polyline style="fill:#414C4B;" points="248,416 296,416 296,448 "/>
<path style="fill:#EAAA0A;" d="M184,231.2V416h128V231.2c0-4.8,0-7.2-0.8-15.2H184.8C184,224,184,226.4,184,231.2z"/>
<g>
	<path style="fill:#D87F09;" d="M311.2,216H248v200h64V231.2C312,226.4,312,224,311.2,216z"/>
	<circle style="fill:#D87F09;" cx="248" cy="260" r="16"/>
</g>
<path style="fill:#EAAA0A;" d="M248,244.8c8.8,0,16,7.2,16,16c0,8.8-7.2,15.2-16,15.2"/>
<path style="fill:#D87F09;" d="M264,316c0,8.8-7.2,16-16,16s-16-7.2-16-16s7.2-15.2,16-15.2C256.8,300.8,264,307.2,264,316z"/>
<path style="fill:#EAAA0A;" d="M248,300c8.8,0,16,7.2,16,15.2c0,8.8-7.2,16-16,16"/>
<circle style="fill:#D87F09;" cx="248" cy="371.2" r="16"/>
<g>
	<path style="fill:#EAAA0A;" d="M248,356c8.8,0,16,7.2,16,15.2c0,8.8-7.2,16-16,16"/>
	<path style="fill:#EAAA0A;" d="M368,264v184h112V264c0-4.8,0-16,0-16H369.6C368.8,256,368,260,368,264z"/>
</g>
<path style="fill:#D87F09;" d="M480,248h-56v200h56V264C480,260,480,248,480,248z"/>
<path style="fill:#CE351B;" d="M496,480c0,4-3.2,8-7.2,8H363.2c-4,0-11.2-4-11.2-8v-25.6c0-4,7.2-5.6,11.2-5.6h125.6
	c4,0,7.2,1.6,7.2,5.6L496,480L496,480z"/>
<path style="fill:#AD1905;" d="M352,453.6c0-4,7.2-5.6,11.2-5.6h125.6c4,0,7.2,1.6,7.2,5.6V480c0,4-3.2,8-7.2,8"/>
<path style="fill:#CE351B;" d="M368,187.2V368h112V187.2c0-4.8-1.6-9.6-3.2-11.2H369.6C368.8,176,368,183.2,368,187.2z"/>
<g>
	<path style="fill:#AD1905;" d="M478.4,176H424v192h56V187.2C480,183.2,480,179.2,478.4,176z"/>
	<circle style="fill:#AD1905;" cx="425.6" cy="216.8" r="16"/>
</g>
<path style="fill:#CE351B;" d="M425.6,200.8c8.8,0,16,7.2,16,16s-7.2,15.2-16,15.2"/>
<circle style="fill:#AD1905;" cx="425.6" cy="272" r="16"/>
<path style="fill:#CE351B;" d="M425.6,256c8.8,0,16,7.2,16,15.2c0,8.8-7.2,16-16,16"/>
<circle style="fill:#AD1905;" cx="425.6" cy="327.2" r="16"/>
<g>
	<path style="fill:#CE351B;" d="M425.6,312c8.8,0,16,7.2,16,16s-7.2,16-16,16"/>
	<path style="fill:#CE351B;" d="M478.4,176c0,5.6-4.8,8-8.8,8h-94.4c-3.2,0-6.4-4.8-6.4-8l0,0c0-3.2,3.2-8,6.4-8H472
		C475.2,168,478.4,171.2,478.4,176L478.4,176z"/>
</g>
</svg>